<svg viewBox="0 0 870 210" xmlns="http://www.w3.org/2000/svg"><path d="m115 0h10c2.8 0 5 2.2 5 5s-2.2 5-5 5h-10c-2.8 0-5-2.2-5-5s2.2-5 5-5zm0 100h10c2.8 0 5 2.2 5 5s-2.2 5-5 5h-10c-2.8 0-5-2.2-5-5s2.2-5 5-5zm-30-40h10.000001c2.8 0 4.999999 2.2 4.999999 5s-2.199999 5-4.999999 5h-10.000001c-2.8 0-5-2.2-5-5s2.2-5 5-5zm-10 20h10c2.8 0 5 2.2 5 5s-2.2 5-5 5h-10c-2.8 0-5-2.2-5-5s2.2-5 5-5zm40-60h10c2.8 0 5 2.2 5 5s-2.2 5-5 5h-10c-2.8 0-5-2.2-5-5s2.2-5 5-5zm-10 20h10c2.8 0 5 2.2 5 5s-2.2 5-5 5h-10c-2.8 0-5-2.2-5-5s2.2-5 5-5zm0 40h10c2.8 0 5 2.2 5 5s-2.2 5-5 5h-10c-2.8 0-5-2.2-5-5s2.2-5 5-5zm-20 20h10.000001c2.8 0 4.999999 2.2 4.999999 5s-2.199999 5-4.999999 5h-10.000001c-2.8 0-5-2.2-5-5s2.2-5 5-5zm50-60h10c2.8 0 5 2.2 5 5s-2.2 5-5 5h-10c-2.8 0-5-2.2-5-5s2.2-5 5-5zm-20 20h10c2.8 0 5 2.2 5 5s-2.2 5-5 5h-10c-2.8 0-5-2.2-5-5s2.2-5 5-5z" fill="#fbbf47"/><path d="m45 120h100c2.8 0 5 2.2 5 5s-2.2 5-5 5h-100c-2.8 0-5-2.2-5-5s2.2-5 5-5zm-10 60h20c2.8 0 5 2.2 5 5s-2.2 5-5 5h-20c-2.8 0-5-2.2-5-5s2.2-5 5-5zm130-60h10c2.8 0 5 2.2 5 5s-2.2 5-5 5h-10c-2.8 0-5-2.2-5-5s2.2-5 5-5zm-115 80h115c2.8 0 5 2.2 5 5s-2.2 5-5 5h-115c-2.8 0-5-2.2-5-5s2.2-5 5-5zm5-60h80c2.8 0 5 2.2 5 5s-2.2 5-5 5h-80c-2.8 0-5-2.2-5-5s2.2-5 5-5zm100 0h20c2.8 0 5 2.2 5 5s-2.2 5-5 5h-20c-2.8 0-5-2.2-5-5s2.2-5 5-5zm-90 20h60c2.8 0 5 2.2 5 5s-2.2 5-5 5h-60c-2.8 0-5-2.2-5-5s2.2-5 5-5zm80 20h20c2.8 0 5 2.2 5 5s-2.2 5-5 5h-20c-2.8 0-5-2.2-5-5s2.2-5 5-5z" fill="#279af1"/><path d="m145 0h60c2.8 0 5 2.2 5 5s-2.2 5-5 5h-60c-2.8 0-5-2.2-5-5s2.2-5 5-5zm50 140h10c2.8 0 5 2.2 5 5s-2.2 5-5 5h-10c-2.8 0-5-2.2-5-5s2.2-5 5-5zm0-20h10c2.8 0 5 2.2 5 5s-2.2 5-5 5h-10c-2.8 0-5-2.2-5-5s2.2-5 5-5zm0-100h10c2.8 0 5 2.2 5 5s-2.2 5-5 5h-10c-2.8 0-5-2.2-5-5s2.2-5 5-5zm-10 160h20c2.8 0 5 2.2 5 5s-2.2 5-5 5h-20c-2.8 0-5-2.2-5-5s2.2-5 5-5zm-180-160h29.9999997c2.8 0 5 2.2 5 5s-2.2 5-5 5h-29.9999997c-2.8000003 0-5.0000003-2.2-5.0000003-5s2.2-5 5.0000003-5zm0 40h9.9999997c2.8 0 5 2.2 5 5s-2.2 5-5 5h-9.9999997c-2.8000003 0-5.0000003-2.2-5.0000003-5s2.2-5 5.0000003-5zm0 140h24.9999997c2.8 0 5 2.2 5 5s-2.2 5-5 5h-24.9999997c-2.8000003 0-5.0000003-2.2-5.0000003-5s2.2-5 5.0000003-5zm0-100h29.9999997c2.8 0 5 2.2 5 5s-2.2 5-5 5h-29.9999997c-2.8000003 0-5.0000003-2.2-5.0000003-5s2.2-5 5.0000003-5zm140 60h60c2.8 0 5 2.2 5 5s-2.2 5-5 5h-60c-2.8 0-5-2.2-5-5s2.2-5 5-5zm-70 20h50c2.8 0 5 2.2 5 5s-2.2 5-5 5h-50c-2.8 0-5-2.2-5-5s2.2-5 5-5zm110 20h20c2.8 0 5 2.2 5 5s-2.2 5-5 5h-20c-2.8 0-5-2.2-5-5s2.2-5 5-5zm-40-140h60c2.8 0 5 2.2 5 5s-2.2 5-5 5h-60c-2.8 0-5-2.2-5-5s2.2-5 5-5zm-10 20h30c2.8 0 5 2.2 5 5s-2.2 5-5 5h-30c-2.8 0-5-2.2-5-5s2.2-5 5-5zm-130 40h19.9999997c2.8 0 5 2.2 5 5s-2.2 5-5 5h-19.9999997c-2.8000003 0-5.0000003-2.2-5.0000003-5s2.2-5 5.0000003-5zm140-20h60c2.8 0 5 2.2 5 5s-2.2 5-5 5h-60c-2.8 0-5-2.2-5-5s2.2-5 5-5zm20-60h40c2.8 0 5 2.2 5 5s-2.2 5-5 5h-40c-2.8 0-5-2.2-5-5s2.2-5 5-5zm-20-20h30c2.8 0 5 2.2 5 5s-2.2 5-5 5h-30c-2.8 0-5-2.2-5-5s2.2-5 5-5zm-140-20h90.0000007c2.8 0 4.999999 2.2 4.999999 5s-2.199999 5-4.999999 5h-90.0000007c-2.8000003 0-5.0000003-2.2-5.0000003-5s2.2-5 5.0000003-5zm49.9999997 20h40.000001c2.8 0 4.999999 2.2 4.999999 5s-2.199999 5-4.999999 5h-40.000001c-2.8 0-5-2.2-5-5s2.2-5 5-5zm-49.9999997 20h79.9999997c2.8 0 5 2.2 5 5s-2.2 5-5 5h-79.9999997c-2.8000003 0-5.0000003-2.2-5.0000003-5s2.2-5 5.0000003-5zm29.9999997 20h30c2.8 0 5 2.2 5 5s-2.2 5-5 5h-30c-2.8 0-5-2.2-5-5s2.2-5 5-5zm-29.9999997 20h49.9999997c2.8 0 5 2.2 5 5s-2.2 5-5 5h-49.9999997c-2.8000003 0-5.0000003-2.2-5.0000003-5s2.2-5 5.0000003-5zm49.9999997 20h10c2.8 0 5 2.2 5 5s-2.2 5-5 5h-10c-2.8 0-5-2.2-5-5s2.2-5 5-5zm-49.9999997 40h29.9999997c2.8 0 5 2.2 5 5s-2.2 5-5 5h-29.9999997c-2.8000003 0-5.0000003-2.2-5.0000003-5s2.2-5 5.0000003-5zm0 20h39.9999997c2.8 0 5 2.2 5 5s-2.2 5-5 5h-39.9999997c-2.8000003 0-5.0000003-2.2-5.0000003-5s2.2-5 5.0000003-5zm0 20h9.9999997c2.8 0 5 2.2 5 5s-2.2 5-5 5h-9.9999997c-2.8000003 0-5.0000003-2.2-5.0000003-5s2.2-5 5.0000003-5zm180-100h20c2.8 0 5 2.2 5 5s-2.2 5-5 5h-20c-2.8 0-5-2.2-5-5s2.2-5 5-5z" fill="#c6cbd0" opacity=".5"/><path d="m296.81141 61.488143v40.301977h-12.7669v-100.478917h32.57284c4.50867 0.092 8.76431 0.80512 12.7669 2.13932 4.0486 1.33419 7.59113 3.26648 10.62758 5.79686 3.03645 2.53037 5.4288 5.65884 7.17706 9.38539 1.79427 3.72655 2.6914 8.00519 2.6914 12.83591 0 4.83071-0.89713 9.10935-2.6914 12.8359-1.74826 3.68055-4.14061 6.78601-7.17706 9.31639-3.03645 2.53037-6.57898 4.46266-10.62758 5.79686-4.00259 1.3342-8.25823 2.0243-12.7669 2.07031zm0-10.48956h19.80594c2.94444-0.046 5.65884-0.50608 8.14321-1.38021 2.48437-0.92013 4.64669-2.20832 6.48696-3.86457s3.26649-3.65754 4.27864-6.00389c1.05816-2.39236 1.58724-5.10676 1.58724-8.14321s-0.52908-5.77386-1.58724-8.21222c-1.01215-2.43836-2.43837-4.50867-4.27864-6.21092-1.79426-1.70226-3.95658-3.01345-6.48696-3.93359-2.48437-0.92014-5.19877-1.40321-8.14321-1.44921h-19.80594zm109.97179-25.25775c1.19618 0 2.43837 0.046 3.72656 0.13802 1.28819 0.046 2.50737 0.16102 3.65754 0.34505 1.19618 0.13802 2.27734 0.32205 3.24348 0.55208 1.01215 0.23003 1.84028 0.48307 2.48437 0.75911l-1.72526 12.49086c-2.48437-0.55208-4.85372-0.94314-7.10805-1.17318-2.20833-0.27604-4.53167-0.41406-6.97004-0.41406-5.98089 0-10.83461 1.3572-14.56116 4.07161-3.68055 2.7144-6.39495 6.50996-8.14321 11.38669v47.893107h-12.8359v-74.669087h12.1458l0.62109 11.86976c3.03645-4.0946 6.67099-7.31508 10.90362-9.66143 4.27863-2.39236 9.13235-3.58853 14.56116-3.58853zm59.04223 77.429497c-5.24478 0-10.0755-0.89713-14.49215-2.6914-4.37065-1.794267-8.1202-4.301637-11.24867-7.522117s-5.56683-7.03905-7.31509-11.4557c-1.74826-4.41666-2.62239-9.22437-2.62239-14.42314v-2.89843c0-6.0269 0.96614-11.4097 2.89843-16.1484 1.93229-4.78471 4.48567-8.81031 7.66014-12.0768 3.22048-3.31249 6.85502-5.84286 10.90362-7.59112 4.09461-1.74826 8.28123-2.62239 12.55987-2.62239 5.3828 0 10.0755 0.94314 14.07809 2.82942 4.0486 1.84027 7.4071 4.41665 10.07549 7.72914 2.6684 3.26649 4.6467 7.13106 5.93489 11.59373 1.33419 4.46266 2.00129 9.29338 2.00129 14.49215v5.72785h-53.34492c0.13802 3.40451 0.78212 6.60198 1.93229 9.59243 1.19617 2.99044 2.80641 5.61283 4.83071 7.86716 2.07031 2.20833 4.53168 3.95659 7.3841 5.24478 2.85243 1.28819 6.0039 1.93229 9.45441 1.93229 4.55467 0 8.60327-0.92014 12.1458-2.76041s6.48696-4.27864 8.83331-7.31509l7.79816 6.07291c-1.24219 1.88628-2.80642 3.70355-4.6927 5.45181-1.84027 1.70225-3.97959 3.22047-6.41795 4.55467-2.43836 1.334197-5.19877 2.392357-8.28123 3.174467-3.08246 0.82813-6.44096 1.24219-10.0755 1.24219zm-1.65624-66.939947c-2.57639 0-5.01475 0.48308-7.31509 1.44922-2.30034 0.92014-4.37065 2.30034-6.21092 4.14062-1.84027 1.79426-3.40451 4.02559-4.6927 6.69399-1.24219 2.62239-2.11632 5.65884-2.62239 9.10935h40.16397v-0.96614c-0.13802-2.48437-0.62109-4.94574-1.44922-7.3841-0.78211-2.43836-1.95529-4.62368-3.51952-6.55597s-3.54253-3.49652-5.93488-4.6927c-2.34635-1.19618-5.15277-1.79427-8.41925-1.79427zm73.87943-27.19003v18.08068h28.43222v9.86847h-28.43222v40.57802c0 2.89844 0.36805 5.29079 1.10416 7.17707s1.74826 3.40451 3.03645 4.55468c1.28819 1.10416 2.76041 1.88628 4.41666 2.34635 1.70225 0.46006 3.49652 0.6901 5.3828 0.6901 1.38021 0 2.80642-0.069 4.27864-0.20703 1.47221-0.18403 2.89842-0.39106 4.27863-0.62109 1.42621-0.23004 2.73741-0.46007 3.93359-0.69011 1.24218-0.27604 2.25433-0.50607 3.03645-0.6901l1.79426 9.04034c-1.05815 0.6441-2.34634 1.219187-3.86457 1.725257-1.51823 0.46007-3.17447 0.85112-4.96874 1.17317-1.79427 0.36806-3.70355 0.6441-5.72785 0.82813-1.97829 0.18403-3.95659 0.27604-5.93488 0.27604-3.31249 0-6.41796-0.46007-9.31639-1.38021-2.85242-0.96614-5.33679-2.461357-7.4531-4.485657-2.11631-2.07031-3.79556-4.7157-5.03775-7.93618-1.19618-3.26649-1.79427-7.20007-1.79427-11.80076v-40.57802h-19.59891v-9.86847h19.59891v-18.08068zm74.9836 0v18.08068h28.43222v9.86847h-28.43222v40.57802c0 2.89844 0.36805 5.29079 1.10416 7.17707s1.74826 3.40451 3.03645 4.55468c1.28819 1.10416 2.76041 1.88628 4.41666 2.34635 1.70225 0.46006 3.49652 0.6901 5.3828 0.6901 1.3802 0 2.80641-0.069 4.27863-0.20703 1.47222-0.18403 2.89843-0.39106 4.27864-0.62109 1.42621-0.23004 2.73741-0.46007 3.93358-0.69011 1.24219-0.27604 2.25434-0.50607 3.03645-0.6901l1.79427 9.04034c-1.05816 0.6441-2.34635 1.219187-3.86457 1.725257-1.51823 0.46007-3.17447 0.85112-4.96874 1.17317-1.79427 0.36806-3.70355 0.6441-5.72785 0.82813-1.97829 0.18403-3.95659 0.27604-5.93488 0.27604-3.31249 0-6.41796-0.46007-9.31639-1.38021-2.85242-0.96614-5.33679-2.461357-7.45311-4.485657-2.11631-2.07031-3.79556-4.7157-5.03774-7.93618-1.19618-3.26649-1.79427-7.20007-1.79427-11.80076v-40.57802h-19.59891v-9.86847h19.59891v-18.08068zm46.75842 18.08068h38.16266v63.62745h24.36062v11.041637h-62.52328v-11.041637h25.39577v-52.5168h-25.39577zm23.73952-19.59891c0-2.11631 0.62109-3.88758 1.86328-5.31379 1.28819-1.47222 3.22048-2.20833 5.79686-2.20833 2.53037 0 4.43966 0.73611 5.72785 2.20833 1.28819 1.42621 1.93229 3.19748 1.93229 5.31379 0 2.07031-0.6441 3.79556-1.93229 5.17577-1.28819 1.3802-3.19748 2.07031-5.72785 2.07031-2.57638 0-4.50867-0.69011-5.79686-2.07031-1.24219-1.38021-1.86328-3.10546-1.86328-5.17577zm82.22966 95.648207c-5.24478 0-10.0755-0.89713-14.49215-2.6914-4.37065-1.794267-8.12021-4.301637-11.24867-7.522117-3.12847-3.22048-5.56683-7.03905-7.31509-11.4557-1.74826-4.41666-2.62239-9.22437-2.62239-14.42314v-2.89843c0-6.0269 0.96614-11.4097 2.89843-16.1484 1.93229-4.78471 4.48567-8.81031 7.66014-12.0768 3.22048-3.31249 6.85502-5.84286 10.90362-7.59112 4.09461-1.74826 8.28123-2.62239 12.55986-2.62239 5.3828 0 10.0755 0.94314 14.07809 2.82942 4.04861 1.84027 7.40711 4.41665 10.0755 7.72914 2.6684 3.26649 4.64669 7.13106 5.93488 11.59373 1.3342 4.46266 2.0013 9.29338 2.0013 14.49215v5.72785h-53.34492c0.13802 3.40451 0.78211 6.60198 1.93228 9.59243 1.19618 2.99044 2.80642 5.61283 4.83072 7.86716 2.07031 2.20833 4.53167 3.95659 7.3841 5.24478 2.85242 1.28819 6.00389 1.93229 9.4544 1.93229 4.55468 0 8.60328-0.92014 12.14581-2.76041s6.48696-4.27863 8.83331-7.31509l7.79816 6.07291c-1.24219 1.88628-2.80642 3.70355-4.6927 5.45181-1.84027 1.70225-3.97959 3.22047-6.41795 4.55467-2.43837 1.334197-5.19878 2.392357-8.28123 3.174467-3.08246 0.82813-6.44096 1.24219-10.0755 1.24219zm-1.65625-66.939947c-2.57638 0-5.01474 0.48308-7.31508 1.44922-2.30035 0.92014-4.37066 2.30034-6.21093 4.14062-1.84027 1.79426-3.4045 4.02559-4.69269 6.69399-1.24219 2.62239-2.11632 5.65884-2.62239 9.10935h40.16396v-0.96614c-0.13802-2.48437-0.62109-4.94573-1.44921-7.3841-0.78212-2.43836-1.95529-4.62368-3.51952-6.55597s-3.54253-3.49652-5.93489-4.6927c-2.34635-1.19618-5.15276-1.79427-8.41925-1.79427zm92.58123-10.48955c1.19618 0 2.43836 0.046 3.72655 0.13802 1.28819 0.046 2.50738 0.16102 3.65755 0.34505 1.19617 0.13802 2.27733 0.32205 3.24348 0.55208 1.01215 0.23003 1.84027 0.48307 2.48437 0.75911l-1.72526 12.49086c-2.48437-0.55208-4.85372-0.94314-7.10805-1.17318-2.20833-0.27604-4.53168-0.41406-6.97004-0.41406-5.98089 0-10.83461 1.3572-14.56116 4.07161-3.68055 2.7144-6.39495 6.50996-8.14321 11.38669v47.893107h-12.83591v-74.669087h12.14581l0.62109 11.86976c3.03645-4.0946 6.67099-7.31508 10.90362-9.66143 4.27863-2.39236 9.13235-3.58853 14.56116-3.58853zm-526.47621 82.400037h13.04293v69.90739c-0.092 4.64669-0.98914 8.92532-2.69139 12.8359-1.65625 3.91058-3.93359 7.29208-6.83202 10.14451-2.89843 2.80641-6.32594 5.01474-10.28253 6.62498-3.91058 1.56423-8.18921 2.34635-12.8359 2.34635-4.6927 0-8.97134-0.71311-12.83591-2.13932-3.81857-1.42621-7.15406-3.45051-10.00649-6.0729-2.80641-2.66839-5.06075-5.86587-6.763-9.59242-1.70225-3.77256-2.76041-7.98219-3.17447-12.62888h12.97392c0.13803 2.80642 0.69011 5.40581 1.65625 7.79816 1.01215 2.39235 2.36936 4.48566 4.07161 6.27993 1.70225 1.74826 3.72655 3.10546 6.0729 4.07161 2.39235 0.96614 5.06075 1.44921 8.00519 1.44921 3.03645 0 5.75085-0.55208 8.14321-1.65624 2.39235-1.15017 4.41665-2.6914 6.0729-4.62369 1.70225-1.93229 2.99044-4.16362 3.86457-6.69399 0.92014-2.57639 1.42622-5.29079 1.51823-8.14321zm76.91588 100.47893c-0.50607-0.96615-0.92013-2.16233-1.24218-3.58854-0.27604-1.47221-0.48307-2.99044-0.6211-4.55467-1.28819 1.28819-2.7374 2.50737-4.34764 3.65754-1.56423 1.15017-3.31249 2.16232-5.24478 3.03645-1.88628 0.87413-3.91058 1.56424-6.0729 2.07031s-4.46266 0.75911-6.90103 0.75911c-3.95659 0-7.54512-0.57508-10.7656-1.72525-3.17447-1.15017-5.88887-2.6914-8.14321-4.62369-2.20833-1.97829-3.93358-4.30164-5.17576-6.97004-1.19618-2.7144-1.79427-5.63583-1.79427-8.7643 0-4.09461 0.80512-7.68314 2.41536-10.7656 1.65625-3.08245 3.97959-5.63583 6.97003-7.66014 2.99045-2.07031 6.57898-3.61153 10.7656-4.62368 4.23263-1.01215 8.94833-1.51823 14.1471-1.51823h13.94007v-5.86587c0-2.25433-0.41406-4.27863-1.24218-6.0729-0.82813-1.79427-2.0013-3.31249-3.51952-4.55468-1.51823-1.28819-3.3815-2.27733-5.58983-2.96744-2.16233-0.6901-4.60069-1.03515-7.31509-1.03515-2.53037 0-4.80771 0.32205-6.83202 0.96614-1.97829 0.6441-3.65754 1.49523-5.03774 2.55338-1.38021 1.05816-2.46137 2.32335-3.24349 3.79556-0.73611 1.42621-1.10416 2.92144-1.10416 4.48567h-12.83591c0.046-2.7144 0.7361-5.3828 2.07031-8.00519 1.38021-2.62239 3.3355-4.96873 5.86587-7.03904 2.57639-2.11632 5.68185-3.81857 9.31639-5.10676 3.68055-1.28819 7.84416-1.93229 12.49085-1.93229 4.23263 0 8.16622 0.52908 11.80075 1.58724 3.63454 1.01215 6.76301 2.57638 9.3854 4.69269 2.66839 2.07031 4.7617 4.66969 6.27993 7.79816s2.27734 6.78601 2.27734 10.97263v34.71216c0 2.48437 0.23003 5.12976 0.6901 7.93618 0.46007 2.76041 1.10417 5.17576 1.93229 7.24607v1.10417zm-22.56635-9.73045c2.48437 0 4.80771-0.32205 6.97003-0.96614 2.16233-0.6441 4.11762-1.49523 5.86588-2.55338 1.79427-1.05816 3.33549-2.25434 4.62368-3.58853 1.28819-1.38021 2.30034-2.80642 3.03645-4.27864v-15.11324h-11.86976c-7.45311 0-13.24997 1.10416-17.39058 3.31249s-6.21092 5.68184-6.21092 10.42055c0 1.84027 0.29904 3.54252 0.89713 5.10675 0.64409 1.56423 1.58723 2.92144 2.82942 4.07161 1.24219 1.10416 2.80642 1.97829 4.6927 2.62239 1.88628 0.64409 4.0716 0.96614 6.55597 0.96614zm77.74401-8.62628 1.17317 4.62369 1.24219-4.62369 20.9101-56.31236h13.04294l-30.43352 74.66909h-9.73045l-30.70956-74.66909h13.11195zm94.78953 18.35673c-0.50607-0.96615-0.92013-2.16233-1.24218-3.58854-0.27604-1.47221-0.48307-2.99044-0.62109-4.55467-1.28819 1.28819-2.73741 2.50737-4.34765 3.65754-1.56423 1.15017-3.31249 2.16232-5.24478 3.03645-1.88628 0.87413-3.91058 1.56424-6.0729 2.07031s-4.46266 0.75911-6.90102 0.75911c-3.95659 0-7.54513-0.57508-10.7656-1.72525-3.17447-1.15017-5.88888-2.6914-8.14321-4.62369-2.20833-1.97829-3.93358-4.30164-5.17577-6.97004-1.19618-2.7144-1.79427-5.63583-1.79427-8.7643 0-4.09461 0.80512-7.68314 2.41536-10.7656 1.65625-3.08245 3.97959-5.63583 6.97004-7.66014 2.99044-2.07031 6.57897-3.61153 10.7656-4.62368 4.23263-1.01215 8.94833-1.51823 14.1471-1.51823h13.94007v-5.86587c0-2.25433-0.41406-4.27863-1.24219-6.0729-0.82812-1.79427-2.00129-3.31249-3.51952-4.55468-1.51823-1.28819-3.3815-2.27733-5.58983-2.96744-2.16232-0.6901-4.60068-1.03515-7.31509-1.03515-2.53037 0-4.80771 0.32205-6.83201 0.96614-1.97829 0.6441-3.65754 1.49523-5.03775 2.55338-1.38021 1.05816-2.46137 2.32335-3.24348 3.79556-0.73611 1.42621-1.10417 2.92144-1.10417 4.48567h-12.8359c0.046-2.7144 0.7361-5.3828 2.07031-8.00519 1.3802-2.62239 3.33549-4.96873 5.86587-7.03904 2.57638-2.11632 5.68184-3.81857 9.31638-5.10676 3.68055-1.28819 7.84417-1.93229 12.49086-1.93229 4.23263 0 8.16621 0.52908 11.80075 1.58724 3.63454 1.01215 6.763 2.57638 9.38539 4.69269 2.6684 2.07031 4.76171 4.66969 6.27994 7.79816 1.51822 3.12847 2.27733 6.78601 2.27733 10.97263v34.71216c0 2.48437 0.23004 5.12976 0.69011 7.93618 0.46007 2.76041 1.10416 5.17576 1.93228 7.24607v1.10417zm-22.56635-9.73045c2.48437 0 4.80772-0.32205 6.97004-0.96614 2.16232-0.6441 4.11761-1.49523 5.86587-2.55338 1.79427-1.05816 3.3355-2.25434 4.62369-3.58853 1.28819-1.38021 2.30034-2.80642 3.03645-4.27864v-15.11324h-11.86977c-7.45311 0-13.24997 1.10416-17.39058 3.31249s-6.21092 5.68184-6.21092 10.42055c0 1.84027 0.29904 3.54252 0.89713 5.10675 0.6441 1.56423 1.58724 2.92144 2.82942 4.07161 1.24219 1.10416 2.80642 1.97829 4.6927 2.62239 1.88628 0.64409 4.0716 0.96614 6.55597 0.96614z" fill="#334650"/></svg>