<svg viewBox="0 0 210 210" xmlns="http://www.w3.org/2000/svg"><path d="m115 0h10c2.8 0 5 2.2 5 5s-2.2 5-5 5h-10c-2.8 0-5-2.2-5-5s2.2-5 5-5zm0 100h10c2.8 0 5 2.2 5 5s-2.2 5-5 5h-10c-2.8 0-5-2.2-5-5s2.2-5 5-5zm-30-40h10c2.8 0 5 2.2 5 5s-2.2 5-5 5h-10c-2.8 0-5-2.2-5-5s2.2-5 5-5zm-10 20h10c2.8 0 5 2.2 5 5s-2.2 5-5 5h-10c-2.8 0-5-2.2-5-5s2.2-5 5-5zm40-60h10c2.8 0 5 2.2 5 5s-2.2 5-5 5h-10c-2.8 0-5-2.2-5-5s2.2-5 5-5zm-10 20h10c2.8 0 5 2.2 5 5s-2.2 5-5 5h-10c-2.8 0-5-2.2-5-5s2.2-5 5-5zm0 40h10c2.8 0 5 2.2 5 5s-2.2 5-5 5h-10c-2.8 0-5-2.2-5-5s2.2-5 5-5zm-20 20h10c2.8 0 5 2.2 5 5s-2.2 5-5 5h-10c-2.8 0-5-2.2-5-5s2.2-5 5-5zm50-60h10c2.8 0 5 2.2 5 5s-2.2 5-5 5h-10c-2.8 0-5-2.2-5-5s2.2-5 5-5zm-20 20h10c2.8 0 5 2.2 5 5s-2.2 5-5 5h-10c-2.8 0-5-2.2-5-5s2.2-5 5-5z" fill="#fbbf47"/><path d="m45 120h100c2.8 0 5 2.2 5 5s-2.2 5-5 5h-100c-2.8 0-5-2.2-5-5s2.2-5 5-5zm-10 60h20c2.8 0 5 2.2 5 5s-2.2 5-5 5h-20c-2.8 0-5-2.2-5-5s2.2-5 5-5zm130-60h10c2.8 0 5 2.2 5 5s-2.2 5-5 5h-10c-2.8 0-5-2.2-5-5s2.2-5 5-5zm-115 80h115c2.8 0 5 2.2 5 5s-2.2 5-5 5h-115c-2.8 0-5-2.2-5-5s2.2-5 5-5zm5-60h80c2.8 0 5 2.2 5 5s-2.2 5-5 5h-80c-2.8 0-5-2.2-5-5s2.2-5 5-5zm100 0h20c2.8 0 5 2.2 5 5s-2.2 5-5 5h-20c-2.8 0-5-2.2-5-5s2.2-5 5-5zm-90 20h60c2.8 0 5 2.2 5 5s-2.2 5-5 5h-60c-2.8 0-5-2.2-5-5s2.2-5 5-5zm80 20h20c2.8 0 5 2.2 5 5s-2.2 5-5 5h-20c-2.8 0-5-2.2-5-5s2.2-5 5-5z" fill="#279af1"/><path d="m145 0h60c2.8 0 5 2.2 5 5s-2.2 5-5 5h-60c-2.8 0-5-2.2-5-5s2.2-5 5-5zm50 140h10c2.8 0 5 2.2 5 5s-2.2 5-5 5h-10c-2.8 0-5-2.2-5-5s2.2-5 5-5zm0-20h10c2.8 0 5 2.2 5 5s-2.2 5-5 5h-10c-2.8 0-5-2.2-5-5s2.2-5 5-5zm0-100h10c2.8 0 5 2.2 5 5s-2.2 5-5 5h-10c-2.8 0-5-2.2-5-5s2.2-5 5-5zm-10 160h20c2.8 0 5 2.2 5 5s-2.2 5-5 5h-20c-2.8 0-5-2.2-5-5s2.2-5 5-5zm-180-160h30c2.8 0 5 2.2 5 5s-2.2 5-5 5h-30c-2.8 0-5-2.2-5-5s2.2-5 5-5zm0 40h10c2.8 0 5 2.2 5 5s-2.2 5-5 5h-10c-2.8 0-5-2.2-5-5s2.2-5 5-5zm0 140h25c2.8 0 5 2.2 5 5s-2.2 5-5 5h-25c-2.8 0-5-2.2-5-5s2.2-5 5-5zm0-100h30c2.8 0 5 2.2 5 5s-2.2 5-5 5h-30c-2.8 0-5-2.2-5-5s2.2-5 5-5zm140 60h60c2.8 0 5 2.2 5 5s-2.2 5-5 5h-60c-2.8 0-5-2.2-5-5s2.2-5 5-5zm-70 20h50c2.8 0 5 2.2 5 5s-2.2 5-5 5h-50c-2.8 0-5-2.2-5-5s2.2-5 5-5zm110 20h20c2.8 0 5 2.2 5 5s-2.2 5-5 5h-20c-2.8 0-5-2.2-5-5s2.2-5 5-5zm-40-140h60c2.8 0 5 2.2 5 5s-2.2 5-5 5h-60c-2.8 0-5-2.2-5-5s2.2-5 5-5zm-10 20h30c2.8 0 5 2.2 5 5s-2.2 5-5 5h-30c-2.8 0-5-2.2-5-5s2.2-5 5-5zm-130 40h20c2.8 0 5 2.2 5 5s-2.2 5-5 5h-20c-2.8 0-5-2.2-5-5s2.2-5 5-5zm140-20h60c2.8 0 5 2.2 5 5s-2.2 5-5 5h-60c-2.8 0-5-2.2-5-5s2.2-5 5-5zm20-60h40c2.8 0 5 2.2 5 5s-2.2 5-5 5h-40c-2.8 0-5-2.2-5-5s2.2-5 5-5zm-20-20h30c2.8 0 5 2.2 5 5s-2.2 5-5 5h-30c-2.8 0-5-2.2-5-5s2.2-5 5-5zm-140-20h90c2.8 0 5 2.2 5 5s-2.2 5-5 5h-90c-2.8 0-5-2.2-5-5s2.2-5 5-5zm50 20h40c2.8 0 5 2.2 5 5s-2.2 5-5 5h-40c-2.8 0-5-2.2-5-5s2.2-5 5-5zm-50 20h80c2.8 0 5 2.2 5 5s-2.2 5-5 5h-80c-2.8 0-5-2.2-5-5s2.2-5 5-5zm30 20h30c2.8 0 5 2.2 5 5s-2.2 5-5 5h-30c-2.8 0-5-2.2-5-5s2.2-5 5-5zm-30 20h50c2.8 0 5 2.2 5 5s-2.2 5-5 5h-50c-2.8 0-5-2.2-5-5s2.2-5 5-5zm50 20h10c2.8 0 5 2.2 5 5s-2.2 5-5 5h-10c-2.8 0-5-2.2-5-5s2.2-5 5-5zm-50 40h30c2.8 0 5 2.2 5 5s-2.2 5-5 5h-30c-2.8 0-5-2.2-5-5s2.2-5 5-5zm0 20h40c2.8 0 5 2.2 5 5s-2.2 5-5 5h-40c-2.8 0-5-2.2-5-5s2.2-5 5-5zm1e-7 20h10c2.8 0 5 2.2 5 5s-2.2 5-5 5h-10c-2.8 0-5-2.2-5-5s2.2-5 5-5zm180-100h20c2.8 0 5 2.2 5 5s-2.2 5-5 5h-20c-2.8 0-5-2.2-5-5s2.2-5 5-5z" fill="#c6cbd0" opacity=".5"/></svg>