<svg viewBox="0 0 685 250" xmlns="http://www.w3.org/2000/svg"><path d="m355 20h10c2.8 0 5 2.2 5 5s-2.2 5-5 5h-10c-2.8 0-5-2.2-5-5s2.2-5 5-5zm0 100h10c2.8 0 5 2.2 5 5s-2.2 5-5 5h-10c-2.8 0-5-2.2-5-5s2.2-5 5-5zm-30-40h10c2.8 0 5 2.2 5 5s-2.2 5-5 5h-10c-2.8 0-5-2.2-5-5s2.2-5 5-5zm-10 20h10c2.8 0 5 2.2 5 5s-2.2 5-5 5h-10c-2.8 0-5-2.2-5-5s2.2-5 5-5zm40-60h10c2.8 0 5 2.2 5 5s-2.2 5-5 5h-10c-2.8 0-5-2.2-5-5s2.2-5 5-5zm-10 20h10c2.8 0 5 2.2 5 5s-2.2 5-5 5h-10c-2.8 0-5-2.2-5-5s2.2-5 5-5zm0 40h10c2.8 0 5 2.2 5 5s-2.2 5-5 5h-10c-2.8 0-5-2.2-5-5s2.2-5 5-5zm-20 20h10c2.8 0 5 2.2 5 5s-2.2 5-5 5h-10c-2.8 0-5-2.2-5-5s2.2-5 5-5zm50-60h10c2.8 0 5 2.2 5 5s-2.2 5-5 5h-10c-2.8 0-5-2.2-5-5s2.2-5 5-5zm-20 20h10c2.8 0 5 2.2 5 5s-2.2 5-5 5h-10c-2.8 0-5-2.2-5-5s2.2-5 5-5z" fill="#fbbf47"/><path d="m285 140h100c2.8 0 5 2.2 5 5s-2.2 5-5 5h-100c-2.8 0-5-2.2-5-5s2.2-5 5-5zm-10 60h20c2.8 0 5 2.2 5 5s-2.2 5-5 5h-20c-2.8 0-5-2.2-5-5s2.2-5 5-5zm130-60h10c2.8 0 5 2.2 5 5s-2.2 5-5 5h-10c-2.8 0-5-2.2-5-5s2.2-5 5-5zm-115 80h115c2.8 0 5 2.2 5 5s-2.2 5-5 5h-115c-2.8 0-5-2.2-5-5s2.2-5 5-5zm5-60h80c2.8 0 5 2.2 5 5s-2.2 5-5 5h-80c-2.8 0-5-2.2-5-5s2.2-5 5-5zm100 0h20c2.8 0 5 2.2 5 5s-2.2 5-5 5h-20c-2.8 0-5-2.2-5-5s2.2-5 5-5zm-90 20h60c2.8 0 5 2.2 5 5s-2.2 5-5 5h-60c-2.8 0-5-2.2-5-5s2.2-5 5-5zm80 20h20c2.8 0 5 2.2 5 5s-2.2 5-5 5h-20c-2.8 0-5-2.2-5-5s2.2-5 5-5z" fill="#279af1"/><path d="m483 20h20c2.8 0 5 2.2 5 5s-2.2 5-5 5h-20c-2.8 0-5-2.2-5-5s2.2-5 5-5zm-98 0h80c2.8 0 5 2.2 5 5s-2.2 5-5 5h-80c-2.8 0-5-2.2-5-5s2.2-5 5-5zm-280 0h60c2.8 0 5 2.2 5 5s-2.2 5-5 5h-60c-2.8 0-5-2.2-5-5s2.2-5 5-5zm80 0h60c2.8 0 5 2.2 5 5s-2.2 5-5 5h-60c-2.8 0-5-2.2-5-5s2.2-5 5-5zm15-20h115c2.8 0 5 2.2 5 5s-2.2 5-5 5h-115c-2.8 0-5-2.2-5-5s2.2-5 5-5zm135 0h60c2.8 0 5 2.2 5 5s-2.2 5-5 5h-60c-2.8 0-5-2.2-5-5s2.2-5 5-5zm-225 0h40c2.8 0 5 2.2 5 5s-2.2 5-5 5h-40c-2.8 0-5-2.2-5-5s2.2-5 5-5zm55 220h40c2.8 0 5 2.2 5 5s-2.2 5-5 5h-40c-2.8 0-5-2.2-5-5s2.2-5 5-5zm20-160h50c2.8 0 5 2.2 5 5s-2.2 5-5 5h-50c-2.8 0-5-2.2-5-5s2.2-5 5-5zm379-60h40c2.8 0 5 2.2 5 5s-2.2 5-5 5h-40c-2.8 0-5-2.2-5-5s2.2-5 5-5zm-518 20h40c2.8 0 5 2.2 5 5s-2.2 5-5 5h-40c-2.8 0-5-2.2-5-5s2.2-5 5-5zm369-20h129c2.8 0 5 2.2 5 5s-2.2 5-5 5h-129c-2.8 0-5-2.2-5-5s2.2-5 5-5zm105 20h114c2.8 0 5 2.2 5 5s-2.2 5-5 5h-114c-2.8 0-5-2.2-5-5s2.2-5 5-5zm-340 220h100c2.8 0 5 2.2 5 5s-2.2 5-5 5h-100c-2.8 0-5-2.2-5-5s2.2-5 5-5zm-80 0h60c2.8 0 5 2.2 5 5s-2.2 5-5 5h-60c-2.8 0-5-2.2-5-5s2.2-5 5-5zm335-80h30c2.8 0 5 2.2 5 5s-2.2 5-5 5h-30c-2.8 0-5-2.2-5-5s2.2-5 5-5zm50 0h80c2.8 0 5 2.2 5 5s-2.2 5-5 5h-80c-2.8 0-5-2.2-5-5s2.2-5 5-5zm-380-20h80c2.8 0 5 2.2 5 5s-2.2 5-5 5h-80c-2.8 0-5-2.2-5-5s2.2-5 5-5zm20-20h80c2.8 0 5 2.2 5 5s-2.2 5-5 5h-80c-2.8 0-5-2.2-5-5s2.2-5 5-5zm-100 0h80c2.8 0 5 2.2 5 5s-2.2 5-5 5h-80c-2.8 0-5-2.2-5-5s2.2-5 5-5zm560 40h25c2.8 0 5 2.2 5 5s-2.2 5-5 5h-25c-2.8 0-5-2.2-5-5s2.2-5 5-5zm-150-20h60c2.8 0 5 2.2 5 5s-2.2 5-5 5h-60c-2.8 0-5-2.2-5-5s2.2-5 5-5zm160-20h60c2.8 0 5 2.2 5 5s-2.2 5-5 5h-60c-2.8 0-5-2.2-5-5s2.2-5 5-5zm-160-80h50c2.8 0 5 2.2 5 5s-2.2 5-5 5h-50c-2.8 0-5-2.2-5-5s2.2-5 5-5zm-290 0h50c2.8 0 5 2.2 5 5s-2.2 5-5 5h-50c-2.8 0-5-2.2-5-5s2.2-5 5-5zm-70 0h50c2.8 0 5 2.2 5 5s-2.2 5-5 5h-50c-2.8 0-5-2.2-5-5s2.2-5 5-5zm90 40h50c2.8 0 5 2.2 5 5s-2.2 5-5 5h-50c-2.8 0-5-2.2-5-5s2.2-5 5-5zm340-40h105c2.8 0 5 2.2 5 5s-2.2 5-5 5h-105c-2.8 0-5-2.2-5-5s2.2-5 5-5zm-80 160h95c2.8 0 5 2.2 5 5s-2.2 5-5 5h-95c-2.8 0-5-2.2-5-5s2.2-5 5-5zm-315 0h145c2.8 0 5 2.2 5 5s-2.2 5-5 5h-145c-2.8 0-5-2.2-5-5s2.2-5 5-5zm30-40h95c2.8 0 5 2.2 5 5s-2.2 5-5 5h-95c-2.8 0-5-2.2-5-5s2.2-5 5-5zm75-120h60c2.8 0 5 2.2 5 5s-2.2 5-5 5h-60c-2.8 0-5-2.2-5-5s2.2-5 5-5zm-185 20h30c2.8 0 5 2.2 5 5s-2.2 5-5 5h-30c-2.8 0-5-2.2-5-5s2.2-5 5-5zm85 20h30c2.8 0 5 2.2 5 5s-2.2 5-5 5h-30c-2.8 0-5-2.2-5-5s2.2-5 5-5zm120 0h20c2.8 0 5 2.2 5 5s-2.2 5-5 5h-20c-2.8 0-5-2.2-5-5s2.2-5 5-5zm240 40h70c2.8 0 5 2.2 5 5s-2.2 5-5 5h-70c-2.8 0-5-2.2-5-5s2.2-5 5-5zm-330-20h100c2.8 0 5 2.2 5 5s-2.2 5-5 5h-100c-2.8 0-5-2.2-5-5s2.2-5 5-5zm340-20h195c2.8 0 5 2.2 5 5s-2.2 5-5 5h-195c-2.8 0-5-2.2-5-5s2.2-5 5-5zm-40-20h80c2.8 0 5 2.2 5 5s-2.2 5-5 5h-80c-2.8 0-5-2.2-5-5s2.2-5 5-5zm100 0h80c2.8 0 5 2.2 5 5s-2.2 5-5 5h-80c-2.8 0-5-2.2-5-5s2.2-5 5-5zm-530 20h80c2.8 0 5 2.2 5 5s-2.2 5-5 5h-80c-2.8 0-5-2.2-5-5s2.2-5 5-5zm60-20h90c2.8 0 5 2.2 5 5s-2.2 5-5 5h-90c-2.8 0-5-2.2-5-5s2.2-5 5-5zm410 160h30c2.8 0 5 2.2 5 5s-2.2 5-5 5h-30c-2.8 0-5-2.2-5-5s2.2-5 5-5zm-405-60h40c2.8 0 5 2.2 5 5s-2.2 5-5 5h-40c-2.8 0-5-2.2-5-5s2.2-5 5-5zm145 60h45c2.8 0 5 2.2 5 5s-2.2 5-5 5h-45c-2.8 0-5-2.2-5-5s2.2-5 5-5zm0-100h50c2.8 0 5 2.2 5 5s-2.2 5-5 5h-50c-2.8 0-5-2.2-5-5s2.2-5 5-5zm340 0h10c2.8 0 5 2.2 5 5s-2.2 5-5 5h-10c-2.8 0-5-2.2-5-5s2.2-5 5-5zm-110-40h10c2.8 0 5 2.2 5 5s-2.2 5-5 5h-10c-2.8 0-5-2.2-5-5s2.2-5 5-5zm-285-80h10c2.8 0 5 2.2 5 5s-2.2 5-5 5h-10c-2.8 0-5-2.2-5-5s2.2-5 5-5zm-5 180h10c2.8 0 5 2.2 5 5s-2.2 5-5 5h-10c-2.8 0-5-2.2-5-5s2.2-5 5-5zm-100 40h80c2.8 0 5 2.2 5 5s-2.2 5-5 5h-80c-2.8 0-5-2.2-5-5s2.2-5 5-5zm380-120h145c2.8 0 5 2.2 5 5s-2.2 5-5 5h-145c-2.8 0-5-2.2-5-5s2.2-5 5-5zm-60 80h40c2.8 0 5 2.2 5 5s-2.2 5-5 5h-40c-2.8 0-5-2.2-5-5s2.2-5 5-5zm60 0h145c2.8 0 5 2.2 5 5s-2.2 5-5 5h-145c-2.8 0-5-2.2-5-5s2.2-5 5-5zm-130 20h50c2.8 0 5 2.2 5 5s-2.2 5-5 5h-50c-2.8 0-5-2.2-5-5s2.2-5 5-5zm85 40h50c2.8 0 5 2.2 5 5s-2.2 5-5 5h-50c-2.8 0-5-2.2-5-5s2.2-5 5-5zm-205-60h30c2.8 0 5 2.2 5 5s-2.2 5-5 5h-30c-2.8 0-5-2.2-5-5s2.2-5 5-5zm-125 0h75c2.8 0 5 2.2 5 5s-2.2 5-5 5h-75c-2.8 0-5-2.2-5-5s2.2-5 5-5zm-35-40h50c2.8 0 5 2.2 5 5s-2.2 5-5 5h-50c-2.8 0-5-2.2-5-5s2.2-5 5-5zm480 0h120c2.8 0 5 2.2 5 5s-2.2 5-5 5h-120c-2.8 0-5-2.2-5-5s2.2-5 5-5zm-510-40h120c2.8 0 5 2.2 5 5s-2.2 5-5 5h-120c-2.8 0-5-2.2-5-5s2.2-5 5-5zm420 120h40c2.8 0 5 2.2 5 5s-2.2 5-5 5h-40c-2.8 0-5-2.2-5-5s2.2-5 5-5zm-125 20h80c2.8 0 5 2.2 5 5s-2.2 5-5 5h-80c-2.8 0-5-2.2-5-5s2.2-5 5-5zm85-160h50c2.8 0 5 2.2 5 5s-2.2 5-5 5h-50c-2.8 0-5-2.2-5-5s2.2-5 5-5zm-10 20h50c2.8 0 5 2.2 5 5s-2.2 5-5 5h-50c-2.8 0-5-2.2-5-5s2.2-5 5-5zm-170 40h60c2.8 0 5 2.2 5 5s-2.2 5-5 5h-60c-2.8 0-5-2.2-5-5s2.2-5 5-5zm180-20h70c2.8 0 5 2.2 5 5s-2.2 5-5 5h-70c-2.8 0-5-2.2-5-5s2.2-5 5-5zm20-60h20c2.8 0 5 2.2 5 5s-2.2 5-5 5h-20c-2.8 0-5-2.2-5-5s2.2-5 5-5zm-20-20h30c2.8 0 5 2.2 5 5s-2.2 5-5 5h-30c-2.8 0-5-2.2-5-5s2.2-5 5-5zm-120-20h70c2.8 0 5 2.2 5 5s-2.2 5-5 5h-70c-2.8 0-5-2.2-5-5s2.2-5 5-5zm30 20h40c2.8 0 5 2.2 5 5s-2.2 5-5 5h-40c-2.8 0-5-2.2-5-5s2.2-5 5-5zm-40 20h70c2.8 0 5 2.2 5 5s-2.2 5-5 5h-70c-2.8 0-5-2.2-5-5s2.2-5 5-5zm20 20h30c2.8 0 5 2.2 5 5s-2.2 5-5 5h-30c-2.8 0-5-2.2-5-5s2.2-5 5-5zm-10 20h30c2.8 0 5 2.2 5 5s-2.2 5-5 5h-30c-2.8 0-5-2.2-5-5s2.2-5 5-5zm30 20h10c2.8 0 5 2.2 5 5s-2.2 5-5 5h-10c-2.8 0-5-2.2-5-5s2.2-5 5-5zm-40 40h20c2.8 0 5 2.2 5 5s-2.2 5-5 5h-20c-2.8 0-5-2.2-5-5s2.2-5 5-5zm-10 20h40c2.8 0 5 2.2 5 5s-2.2 5-5 5h-40c-2.8 0-5-2.2-5-5s2.2-5 5-5z" fill="#4d616e" opacity=".5"/></svg>